<?xml version="1.0" encoding="utf-8"?>
<!-- Generator: Adobe Illustrator 16.0.0, SVG Export Plug-In . SVG Version: 6.00 Build 0)  -->
<!DOCTYPE svg PUBLIC "-//W3C//DTD SVG 1.1//EN" "http://www.w3.org/Graphics/SVG/1.1/DTD/svg11.dtd">
<svg version="1.1" id="图层_1" xmlns="http://www.w3.org/2000/svg" xmlns:xlink="http://www.w3.org/1999/xlink" x="0px" y="0px"
	 width="188.333px" height="71.333px" viewBox="0 0 188.333 71.333" enable-background="new 0 0 188.333 71.333"
	 xml:space="preserve">
<g id="图层_3">
	<rect x="0" fill="#4398D4" width="188.624" height="71.333"/>
</g>
<g>
	<path fill="#FFFFFF" d="M23.379,22.611c-1.246,1.103-2.984,2.147-5.215,3.133c-0.805,0.364-1.622,0.701-2.452,1.012
		c-0.831,0.312-1.375,0.506-1.634,0.584c0.129,3.166,0.194,5.863,0.194,8.095c0,0.727,0.084,1.317,0.253,1.771
		c0.168,0.454,0.253,0.746,0.253,0.876c0,0.285-0.143,0.525-0.428,0.72c-0.286,0.194-0.584,0.292-0.895,0.292
		c-0.389,0-0.636-0.272-0.74-0.817c0-0.052-0.033-0.286-0.097-0.7c-0.065-0.415-0.097-0.999-0.097-1.751
		c0-2.023-0.078-5.344-0.233-9.963c-0.078-2.335-0.117-3.995-0.117-4.981c0-0.83,0.013-1.602,0.039-2.315
		c0.025-0.714,0.039-1.2,0.039-1.46C10.614,17.546,9.2,18,8.007,18.466c-0.39,0.182-0.934,0.48-1.635,0.895
		c-0.312,0.182-0.617,0.351-0.915,0.506c-0.299,0.156-0.525,0.233-0.681,0.233c-0.208,0-0.389-0.09-0.545-0.272
		c-0.156-0.181-0.233-0.402-0.233-0.661c0-0.337,0.493-0.759,1.479-1.265c0.986-0.506,2.185-0.992,3.6-1.459
		c1.414-0.467,2.717-0.817,3.911-1.051c1.401-0.259,2.958-0.389,4.67-0.389c2.36,0,4.216,0.305,5.565,0.915
		c1.349,0.61,2.024,1.524,2.024,2.744C25.247,20.192,24.624,21.509,23.379,22.611z M21.783,17.104
		c-1.116-0.363-2.491-0.545-4.125-0.545c-1.194,0-2.413,0.078-3.659,0.233c-0.026,0.208-0.058,0.688-0.097,1.44
		c-0.039,0.753-0.058,1.466-0.058,2.14l0.039,2.841c0.025,0.623,0.039,1.414,0.039,2.374c0.545-0.051,1.699-0.44,3.463-1.167
		c1.712-0.752,3.153-1.589,4.32-2.51c1.168-0.92,1.751-1.9,1.751-2.938C23.457,18.09,22.898,17.468,21.783,17.104z"/>
	<path fill="#FFFFFF" d="M30.968,13.718c0,0-0.428,0-1.284,0c-0.441,0-0.889-0.181-1.343-0.545
		c-0.454-0.363-0.681-0.662-0.681-0.895c0-0.285,0.136-0.558,0.408-0.817c0.272-0.259,0.551-0.389,0.836-0.389
		c0.39,0.13,0.714,0.337,0.973,0.623c0.207,0.208,0.441,0.48,0.701,0.817c0.259,0.337,0.389,0.545,0.389,0.623
		C30.968,13.524,30.968,13.718,30.968,13.718z M31.61,38.217c-0.221,0.142-0.474,0.2-0.759,0.175
		c-0.364-0.026-0.629-0.609-0.798-1.751c-0.169-1.142-0.344-3.308-0.525-6.5c-0.104-2.102-0.195-4.157-0.272-6.168
		c-0.078-2.01-0.13-3.561-0.156-4.65c0-0.285,0.045-0.5,0.136-0.642c0.091-0.142,0.266-0.214,0.525-0.214
		c0.596,0,0.973,0.247,1.128,0.739c0.156,0.493,0.234,1.44,0.234,2.841l-0.039,4.592c0,2.621,0.078,4.723,0.233,6.305
		c0,0.078,0.117,0.908,0.351,2.491c0.181,1.09,0.272,1.816,0.272,2.179C31.941,37.873,31.83,38.074,31.61,38.217z"/>
	<path fill="#FFFFFF" d="M52.994,42.634c-0.804,1.66-1.751,3.01-2.841,4.047c-1.116,1.063-2.276,1.927-3.483,2.588
		c-1.206,0.662-2.25,0.993-3.133,0.993c-0.493,0-0.843-0.124-1.05-0.37c-0.208-0.247-0.312-0.539-0.312-0.876
		c0-0.311,0.583-0.675,1.751-1.09c1.764-0.571,3.398-1.531,4.903-2.88c1.167-1.038,2.024-2.218,2.568-3.541
		c0.545-1.324,0.818-2.673,0.818-4.047c0-1.557-0.098-2.983-0.292-4.281c-0.194-1.297-0.5-2.893-0.915-4.787
		c-0.467-1.998-0.792-3.697-0.973-5.098c-0.441,1.193-1.123,2.633-2.043,4.32s-2.018,3.308-3.288,4.865
		c-1.194,1.479-2.277,2.582-3.25,3.308c-0.973,0.727-1.914,1.09-2.821,1.09c-0.778,0-1.356-0.305-1.732-0.915
		c-0.376-0.609-0.564-1.446-0.564-2.51c0-1.764,0.544-3.839,1.634-6.227c1.09-2.387,2.452-4.437,4.086-6.149
		c1.634-1.712,3.243-2.569,4.826-2.569c0.545,0,0.966,0.195,1.265,0.584c0.298,0.389,0.448,0.856,0.448,1.401
		c0,0.7-0.143,1.05-0.428,1.05c-0.078,0-0.175-0.097-0.292-0.292c-0.117-0.194-0.253-0.37-0.409-0.525
		c-0.155-0.156-0.324-0.233-0.506-0.233c-1.323,0-2.666,0.739-4.028,2.218s-2.491,3.211-3.386,5.196
		c-0.895,1.984-1.342,3.613-1.342,4.884c0,0.7,0.097,1.206,0.292,1.518c0.194,0.311,0.499,0.467,0.915,0.467
		c0.623,0,1.375-0.363,2.257-1.09c0.881-0.726,1.932-1.868,3.152-3.425c1.089-1.375,2.082-2.977,2.977-4.806
		c0.895-1.829,1.576-3.574,2.043-5.234c0.052-0.155,0.136-0.285,0.253-0.389c0.117-0.104,0.252-0.155,0.409-0.155
		c0.233,0,0.473,0.072,0.72,0.214c0.246,0.143,0.37,0.292,0.37,0.447c0,0.104-0.02,0.214-0.059,0.331s-0.072,0.189-0.097,0.214
		c0.181,1.427,0.609,3.646,1.284,6.655c0.493,2.127,0.862,3.911,1.109,5.351c0.246,1.44,0.37,2.848,0.37,4.223
		C54.201,39.131,53.798,40.973,52.994,42.634z"/>
	<path fill="#FFFFFF" d="M74.087,42.634c-0.805,1.66-1.751,3.01-2.841,4.047c-1.116,1.063-2.276,1.927-3.483,2.588
		c-1.206,0.662-2.251,0.993-3.133,0.993c-0.493,0-0.843-0.124-1.05-0.37c-0.208-0.247-0.312-0.539-0.312-0.876
		c0-0.311,0.583-0.675,1.751-1.09c1.764-0.571,3.398-1.531,4.903-2.88c1.167-1.038,2.024-2.218,2.568-3.541
		c0.545-1.324,0.817-2.673,0.817-4.047c0-1.557-0.097-2.983-0.292-4.281c-0.194-1.297-0.5-2.893-0.914-4.787
		c-0.467-1.998-0.792-3.697-0.973-5.098c-0.441,1.193-1.123,2.633-2.043,4.32c-0.922,1.687-2.018,3.308-3.289,4.865
		c-1.194,1.479-2.277,2.582-3.25,3.308c-0.973,0.727-1.914,1.09-2.822,1.09c-0.778,0-1.356-0.305-1.731-0.915
		c-0.377-0.609-0.564-1.446-0.564-2.51c0-1.764,0.544-3.839,1.635-6.227c1.089-2.387,2.451-4.437,4.086-6.149
		s3.243-2.569,4.826-2.569c0.545,0,0.966,0.195,1.265,0.584c0.298,0.389,0.448,0.856,0.448,1.401c0,0.7-0.144,1.05-0.429,1.05
		c-0.078,0-0.175-0.097-0.292-0.292c-0.117-0.194-0.253-0.37-0.409-0.525c-0.155-0.156-0.324-0.233-0.506-0.233
		c-1.323,0-2.666,0.739-4.028,2.218c-1.362,1.479-2.491,3.211-3.386,5.196c-0.895,1.984-1.342,3.613-1.342,4.884
		c0,0.7,0.097,1.206,0.292,1.518c0.195,0.311,0.5,0.467,0.915,0.467c0.623,0,1.375-0.363,2.257-1.09
		c0.882-0.726,1.932-1.868,3.152-3.425c1.09-1.375,2.082-2.977,2.977-4.806c0.895-1.829,1.576-3.574,2.043-5.234
		c0.052-0.155,0.136-0.285,0.253-0.389c0.117-0.104,0.252-0.155,0.408-0.155c0.234,0,0.473,0.072,0.72,0.214
		c0.247,0.143,0.37,0.292,0.37,0.447c0,0.104-0.02,0.214-0.059,0.331c-0.039,0.117-0.071,0.189-0.097,0.214
		c0.182,1.427,0.609,3.646,1.285,6.655c0.492,2.127,0.862,3.911,1.109,5.351c0.246,1.44,0.37,2.848,0.37,4.223
		C75.293,39.131,74.891,40.973,74.087,42.634z"/>
	<path fill="#FFFFFF" d="M91.521,24.187c-0.311,2.284-0.48,3.568-0.506,3.853c-0.337,3.192-0.578,5.624-0.72,7.297
		c-0.143,1.673-0.214,3.185-0.214,4.534c0,1.115,0.084,1.998,0.253,2.646c0.168,0.648,0.35,1.161,0.544,1.537
		c0.195,0.376,0.292,0.604,0.292,0.681c0,0.233-0.207,0.44-0.622,0.623c-0.416,0.181-0.844,0.272-1.284,0.272
		c-0.338,0-0.604-0.455-0.798-1.362c-0.194-0.909-0.292-2.322-0.292-4.242c0-1.453,0.142-3.412,0.428-5.876l0.584-5.371
		c-0.701,1.349-1.564,2.64-2.588,3.873c-1.025,1.232-2.082,1.848-3.172,1.848c-1.012,0-1.92-0.882-2.724-2.646
		c-0.805-1.764-1.434-3.762-1.887-5.993c-0.455-2.231-0.681-3.865-0.681-4.903c0-0.648,0.195-0.973,0.583-0.973
		c0.57,0,0.934,0.532,1.09,1.596c0.986,7.213,2.36,10.819,4.125,10.819c0.701,0,1.317-0.278,1.849-0.836s1.161-1.421,1.888-2.588
		c0.337-0.544,0.7-1.271,1.09-2.179c0.389-0.908,0.687-1.661,0.895-2.258l0.272-3.931c0.052-0.596,0.13-1.018,0.234-1.265
		c0.104-0.246,0.312-0.37,0.623-0.37c0.259,0,0.519,0.149,0.779,0.448c0.259,0.298,0.389,0.59,0.389,0.875
		C91.95,20.893,91.807,22.189,91.521,24.187z"/>
</g>
<g id="图层_2">
	<path fill="#FFFFFF" d="M109.16,27.597c4.916-8.471,14.434-18.826,36.71-19.558c22.277-0.732,34.232,17.584,34.515,27.716
		c0.281,10.131-0.732,21.126-6.903,25.101c-6.17,3.974-52.293,8.158-60.66,0.627S104.245,36.068,109.16,27.597z"/>
	<path fill="#F3D563" d="M131.856,40.356c-0.314-3.347,3.138-9.936,10.354-9.518c7.217,0.418,9.622,5.334,9.309,9.518
		c-0.314,4.184-3.238,8.367-9.829,8.367S132.169,43.703,131.856,40.356z"/>
	<path fill="#F3D563" d="M155.597,9.398c0.267-0.334,6.38-0.104,7.896,0.471c1.516,0.575,4.322,2.551,5.386,3.765
		s2.823,2.458,3.713,4.236c0.889,1.778,1.412,7.844,0.941,8.001c-0.472,0.157-3.243-2.928-4.55-4.34
		c-1.308-1.412-2.989-2.719-4.863-3.896c-1.875-1.176-1.921-1.147-3.661-2.484c-1.739-1.336-3.869-2.615-4.288-3.294
		C155.753,11.176,155.33,9.733,155.597,9.398z"/>
	<path fill="#F3D563" d="M112.821,21.112c-0.053-0.68,0.862-1.726,1.464-2.51c0.602-0.784,3.579-3.685,5.229-4.654
		s5.094-2.772,5.647-2.981c0.555-0.209,2.98-1.124,3.739-1.412c0.758-0.288,2.065-1.517,2.641-1.726
		c0.575-0.209,1.046-0.209,1.281,0c0.235,0.209,0.327,0.564,0.262,0.968s0,1.072-0.235,1.464s-4.69,2.621-5.101,2.882
		c-0.409,0.261-2.763,1.657-4.38,2.858c-1.616,1.201-3.055,2.317-4.299,3.463c-1.244,1.146-2.757,2.817-3.007,3.007
		c-0.251,0.189-0.523,0.732-1.072,0.811c-0.549,0.078-0.837-0.369-1.202-0.642C113.422,22.367,112.873,21.792,112.821,21.112z"/>
	<path fill="#DFB40A" d="M155.667,9.539c0.315-0.095,4.47,2.488,5.264,3.102c0.795,0.613,3.086,2.342,3.682,2.841
		c0.595,0.499,2.531,2.035,3.222,2.702c0.69,0.667,2.733,2.482,3.033,2.928c0.299,0.446,2.384,3.036,2.604,3.625
		c0.221,0.591,0.237,1.547-0.416,0.914c-0.655-0.633-1.298-1.343-2.439-2.36c-1.141-1.018-5.052-4.711-5.964-5.316
		s-2.673-1.705-3.758-2.493c-1.084-0.789-2.002-1.392-2.674-1.943s-1.42-1.055-2.048-1.683
		C155.544,11.229,155.351,9.633,155.667,9.539z"/>
	<path fill="#DFB40A" d="M113.169,21.287c0.253-0.685,1.307-1.255,2.23-2.022c0.924-0.768,2.718-1.854,4.045-2.789
		c1.326-0.935,2.121-1.57,3.067-2.162c0.946-0.591,2.533-1.565,3.348-2.092c0.813-0.526,2.725-1.678,3.346-2.161
		c0.623-0.483,2.626-2.373,3.147-2.387c0.521-0.015,0.665,0.156,0.75,0.901c0.086,0.745-0.006,1.323-0.411,1.838
		s-2.409,1.454-3.347,1.949s-2.806,1.422-3.678,2.077c-0.873,0.655-2.185,1.446-3.364,2.385c-1.18,0.939-2.774,2.056-3.417,2.719
		c-0.642,0.664-2.586,2.805-2.995,3.097c-0.41,0.292-0.456,0.563-0.9,0.642c-0.444,0.078-0.862-0.369-1.202-0.642
		C113.448,22.367,112.917,21.972,113.169,21.287z"/>
	<path fill="#FFFFFF" d="M145.138,42.161c0.758,0.34,2.484-0.079,2.614-1.177c0.131-1.098-0.575-1.359-1.49-1.568
		c-0.915-0.209-1.961,0.183-2.248,1.045C143.726,41.324,144.379,41.821,145.138,42.161z"/>
	<path fill="#FFFFFF" d="M136.771,40.043c-0.131-0.916,1.046-1.464,1.726-1.412s1.308,0.269,1.464,1.141
		c0.157,0.872-0.68,1.656-1.595,1.63S136.902,40.958,136.771,40.043z"/>
	<path fill="#231815" stroke="#000000" stroke-miterlimit="10" d="M154.917,23.832c0.419-0.889,1.203-1.074,2.092-1.19
		c0.89-0.117,2.72,0.877,3.085,1.19c0.366,0.314,1.256,0.785,1.465,1.726c0.209,0.941-0.209,2.824-1.412,3.033
		c-1.203,0.209-2.458,0-3.294-0.418c-0.837-0.419-1.736-1.843-1.936-2.521C154.718,24.975,154.917,23.832,154.917,23.832z"/>
	<path fill="#231815" stroke="#000000" stroke-miterlimit="10" d="M124.43,26.028c-0.454-1.15,0.522-2.51,1.464-3.033
		c0.941-0.522,3.556-0.418,3.975,0c0.418,0.418,0.522,1.046,0,2.092c-0.523,1.046-1.848,2.092-3.033,2.301
		C125.65,27.597,124.883,27.178,124.43,26.028z"/>
</g>
</svg>
