<?xml version="1.0" encoding="utf-8"?>
<!-- Generator: Adobe Illustrator 16.0.0, SVG Export Plug-In . SVG Version: 6.00 Build 0)  -->
<!DOCTYPE svg PUBLIC "-//W3C//DTD SVG 1.1//EN" "http://www.w3.org/Graphics/SVG/1.1/DTD/svg11.dtd">
<svg version="1.1" id="图层_1" xmlns="http://www.w3.org/2000/svg" xmlns:xlink="http://www.w3.org/1999/xlink" x="0px" y="0px"
	 width="189px" height="72px" viewBox="0 0 188.333 71.333" enable-background="new 0 0 188.333 71.333"
	 xml:space="preserve">
<g id="图层_3">
	<rect fill="#4398D4" width="189" height="72"/>
</g>
<g>
	<g>
		<g>
			<path fill="#FFFFFF" d="M18.455,40.094c-0.331,0-1.435-0.117-1.723-1.631l-0.018-0.092v-0.098
				c-0.005-0.021-0.035-0.229-0.085-0.548c-0.073-0.468-0.109-1.089-0.109-1.903c0-1.988-0.078-5.329-0.232-9.93
				c-0.078-2.335-0.118-4.022-0.118-5.015c0-0.843,0.014-1.627,0.04-2.351c0.001-0.032,0.002-0.063,0.003-0.093
				c-1.056,0.313-2.008,0.634-2.843,0.96c-0.298,0.142-0.819,0.427-1.489,0.824c-0.332,0.194-0.65,0.37-0.962,0.533
				C10.466,20.99,10.103,21.1,9.776,21.1c-0.351,0-0.862-0.107-1.303-0.62c-0.311-0.361-0.475-0.815-0.475-1.313
				c0-0.983,1.022-1.641,2.022-2.155c1.026-0.526,2.286-1.038,3.744-1.519c1.447-0.478,2.803-0.842,4.032-1.083
				c1.466-0.271,3.099-0.408,4.863-0.408c2.527,0,4.482,0.328,5.977,1.004c2.159,0.976,2.612,2.526,2.612,3.655
				c0,1.822-0.742,3.402-2.206,4.698c-1.316,1.166-3.158,2.275-5.473,3.299c-0.812,0.367-1.657,0.716-2.505,1.034
				c-0.375,0.141-0.693,0.258-0.956,0.353c0.109,2.857,0.165,5.341,0.165,7.39c0,0.605,0.064,1.083,0.19,1.421
				c0.263,0.714,0.316,0.998,0.316,1.227c0,0.617-0.307,1.164-0.864,1.545C19.46,39.937,18.969,40.094,18.455,40.094z M19.9,18.284
				c-0.038,0.735-0.056,1.431-0.056,2.088l0.039,2.827c0.013,0.314,0.023,0.681,0.03,1.098c0.479-0.163,1.151-0.415,2.091-0.802
				c1.607-0.706,2.987-1.506,4.082-2.371c0.91-0.716,1.371-1.44,1.371-2.153c0-0.194,0-0.597-0.983-0.917
				c-1.012-0.329-2.295-0.496-3.815-0.496c-0.885,0-1.799,0.045-2.726,0.136C19.923,17.866,19.912,18.063,19.9,18.284z"/>
		</g>
		<g>
			<path fill="#FFFFFF" d="M35.976,39.398c-0.069,0-0.139-0.003-0.21-0.01c-1.331-0.097-1.591-1.853-1.702-2.601
				c-0.175-1.183-0.35-3.335-0.535-6.59c-0.104-2.113-0.195-4.172-0.272-6.188c-0.078-2.017-0.13-3.572-0.156-4.665
				c0-0.51,0.095-0.896,0.292-1.205c0.163-0.254,0.556-0.676,1.368-0.676c1.035,0,1.793,0.524,2.082,1.438
				c0.191,0.605,0.28,1.604,0.28,3.142l-0.039,4.601c0,2.563,0.077,4.651,0.228,6.199c0.01,0.118,0.064,0.541,0.345,2.442
				c0.253,1.522,0.283,2.053,0.283,2.325c0.002,0.602-0.277,1.113-0.787,1.443C36.8,39.284,36.405,39.398,35.976,39.398z
				 M34.684,14.718c-0.674,0-1.336-0.257-1.969-0.765c-0.453-0.362-1.055-0.93-1.055-1.675c0-0.391,0.125-0.977,0.718-1.542
				c0.577-0.549,1.148-0.664,1.525-0.664h0.162l0.154,0.051c0.554,0.185,1.024,0.487,1.398,0.9c0.206,0.205,0.469,0.512,0.752,0.878
				c0.405,0.527,0.597,0.845,0.597,1.233l0.001,1.583h-1L34.684,14.718L34.684,14.718z"/>
		</g>
		<g>
			<path fill="#FFFFFF" d="M48.537,51.262c-0.799,0-1.41-0.244-1.815-0.727c-0.358-0.428-0.547-0.951-0.547-1.521
				c0-1.085,1.248-1.618,2.417-2.032c1.648-0.532,3.177-1.435,4.57-2.685c1.052-0.937,1.828-2.002,2.311-3.176
				c0.493-1.197,0.743-2.433,0.743-3.668c0-1.498-0.095-2.888-0.281-4.131c-0.188-1.253-0.491-2.841-0.903-4.721
				c-0.156-0.668-0.297-1.307-0.422-1.915c-0.228,0.448-0.474,0.916-0.738,1.401c-0.941,1.726-2.082,3.414-3.391,5.019
				c-1.257,1.558-2.379,2.696-3.427,3.479c-1.145,0.854-2.295,1.289-3.419,1.289c-1.129,0-2.022-0.479-2.583-1.392
				c-0.473-0.766-0.713-1.787-0.713-3.035c0-1.901,0.58-4.136,1.725-6.643c1.131-2.478,2.569-4.64,4.272-6.424
				c1.822-1.91,3.689-2.879,5.549-2.879c0.856,0,1.568,0.337,2.058,0.975c0.164,0.214,0.297,0.443,0.4,0.687
				c0.029-0.029,0.059-0.058,0.09-0.085c0.298-0.266,0.669-0.407,1.072-0.407c0.408,0,0.818,0.117,1.219,0.348
				c0.721,0.419,0.871,0.945,0.871,1.313c0,0.211-0.037,0.429-0.11,0.647c-0.005,0.016-0.011,0.033-0.017,0.049
				c0.195,1.401,0.609,3.513,1.23,6.285c0.491,2.12,0.868,3.939,1.119,5.4c0.255,1.494,0.384,2.971,0.384,4.392
				c0.001,2.162-0.438,4.168-1.306,5.96c-0.854,1.766-1.881,3.225-3.052,4.337c-1.175,1.12-2.417,2.042-3.691,2.74
				C50.783,50.897,49.601,51.262,48.537,51.262z M51.821,21.494c-0.987,0.055-2.047,0.691-3.152,1.891
				c-1.284,1.394-2.364,3.052-3.21,4.93c-0.832,1.844-1.253,3.349-1.253,4.473c0,0.743,0.126,0.965,0.14,0.988
				c0.24-0.003,0.745-0.087,1.688-0.865c0.822-0.678,1.832-1.778,3.001-3.271c1.044-1.318,2.007-2.874,2.866-4.628
				c0.413-0.844,0.781-1.674,1.101-2.485c-0.573-0.084-0.876-0.589-0.981-0.764C51.959,21.664,51.893,21.574,51.821,21.494z"/>
		</g>
		<g>
			<path fill="#FFFFFF" d="M69.63,51.262c-0.799,0-1.41-0.244-1.815-0.727c-0.358-0.428-0.547-0.951-0.547-1.521
				c0-1.085,1.248-1.618,2.417-2.032c1.648-0.532,3.176-1.435,4.569-2.685c1.052-0.937,1.828-2.002,2.311-3.176
				c0.493-1.195,0.742-2.431,0.742-3.668c0-1.5-0.095-2.891-0.281-4.13c-0.188-1.256-0.492-2.844-0.902-4.722
				c-0.156-0.667-0.297-1.307-0.423-1.914c-0.227,0.448-0.474,0.916-0.738,1.401c-0.947,1.732-2.088,3.421-3.392,5.019
				c-1.256,1.556-2.378,2.695-3.427,3.478c-1.145,0.854-2.295,1.289-3.42,1.289c-1.13,0-2.023-0.479-2.583-1.393
				c-0.479-0.773-0.712-1.767-0.712-3.034c0-1.902,0.581-4.137,1.725-6.643c1.13-2.477,2.567-4.639,4.272-6.424
				c1.824-1.91,3.691-2.879,5.549-2.879c0.855,0,1.567,0.337,2.058,0.974c0.164,0.214,0.297,0.443,0.399,0.687
				c0.029-0.029,0.059-0.057,0.089-0.084c0.3-0.267,0.67-0.407,1.071-0.407c0.408,0,0.818,0.117,1.219,0.348
				c0.721,0.417,0.872,0.944,0.872,1.313c0,0.21-0.037,0.428-0.11,0.647c-0.005,0.016-0.011,0.032-0.017,0.049
				c0.197,1.409,0.611,3.521,1.231,6.285c0.493,2.129,0.87,3.948,1.119,5.401c0.255,1.494,0.384,2.971,0.384,4.392
				c0.001,2.165-0.438,4.171-1.305,5.96c-0.855,1.767-1.882,3.226-3.051,4.337c-1.177,1.121-2.419,2.045-3.692,2.74
				C71.876,50.897,70.693,51.262,69.63,51.262z M72.913,21.494c-0.987,0.055-2.047,0.691-3.153,1.892
				c-1.283,1.396-2.363,3.052-3.209,4.929c-0.832,1.845-1.254,3.35-1.254,4.473c0,0.743,0.126,0.965,0.14,0.988
				c0.24-0.003,0.745-0.087,1.688-0.865c0.819-0.674,1.829-1.774,3-3.27c1.043-1.317,2.007-2.873,2.866-4.628
				c0.413-0.844,0.781-1.674,1.101-2.485c-0.573-0.084-0.876-0.588-0.982-0.764C73.051,21.665,72.985,21.574,72.913,21.494z"/>
		</g>
		<g>
			<path fill="#FFFFFF" d="M94.264,46.629c-1.315,0-1.662-1.619-1.776-2.151c-0.212-0.992-0.314-2.448-0.314-4.452
				c0-1.49,0.146-3.507,0.435-5.991l0.131-1.203c-0.122,0.154-0.246,0.307-0.373,0.459c-1.22,1.466-2.545,2.209-3.941,2.209
				c-1.434,0-2.657-1.087-3.634-3.231c-0.832-1.823-1.491-3.913-1.957-6.208c-0.472-2.313-0.701-3.982-0.701-5.102
				c0-1.878,1.319-1.973,1.583-1.973c0.642,0,1.767,0.318,2.08,2.451c1.347,9.851,3.063,9.964,3.136,9.964
				c0.426,0,0.783-0.167,1.125-0.526c0.481-0.505,1.074-1.321,1.763-2.427c0.307-0.496,0.65-1.184,1.02-2.044
				c0.348-0.812,0.625-1.506,0.826-2.068l0.264-3.795c0.064-0.735,0.162-1.233,0.31-1.584c0.261-0.615,0.839-0.981,1.546-0.981
				c0.385,0,0.965,0.137,1.533,0.792c0.421,0.485,0.635,1,0.635,1.531c-0.002,0.653-0.146,1.972-0.44,4.033
				c-0.308,2.26-0.476,3.542-0.5,3.802c-0.347,3.286-0.582,5.666-0.72,7.291c-0.141,1.633-0.211,3.13-0.211,4.451
				c0,1.026,0.074,1.832,0.222,2.395c0.147,0.572,0.305,1.021,0.465,1.332c0.31,0.594,0.403,0.857,0.403,1.141
				c0,0.455-0.211,1.094-1.219,1.535C95.409,46.51,94.842,46.629,94.264,46.629z"/>
		</g>
	</g>
</g>
<g id="图层_2">
	<path fill="#FFFFFF" d="M109.161,27.597c4.916-8.471,14.437-18.826,36.709-19.558c22.277-0.732,34.232,17.584,34.519,27.716
		c0.278,10.13-0.732,21.126-6.903,25.101c-6.17,3.975-52.293,8.158-60.658,0.627C104.458,53.952,104.245,36.068,109.161,27.597z"/>
	<path fill="#F3D563" d="M131.856,40.356c-0.314-3.348,3.139-9.936,10.354-9.518c7.221,0.418,9.623,5.334,9.313,9.518
		s-3.236,8.367-9.829,8.367C135.101,48.723,132.168,43.704,131.856,40.356z"/>
	<g>
		<path fill="#DFB40A" d="M141.691,47.723c-5.976,0-8.56-4.461-8.839-7.46c-0.128-1.356,0.538-3.699,2.3-5.636
			c1.167-1.281,3.226-2.809,6.408-2.809c0.192,0,0.392,0.006,0.592,0.018c2.907,0.168,5.126,1.104,6.595,2.782
			c1.289,1.471,1.938,3.535,1.776,5.664C150.254,43.879,147.792,47.723,141.691,47.723z"/>
	</g>
	<path fill="#F3D563" d="M155.597,9.398c0.267-0.334,6.38-0.104,7.896,0.471c1.516,0.575,4.322,2.551,5.387,3.765
		c1.063,1.214,2.822,2.458,3.713,4.236c0.892,1.778,1.412,7.844,0.941,8.001c-0.473,0.157-3.244-2.928-4.551-4.34
		c-1.309-1.412-2.988-2.719-4.863-3.896c-1.875-1.176-1.921-1.147-3.66-2.484c-1.736-1.336-3.869-2.615-4.289-3.294
		C155.752,11.176,155.331,9.733,155.597,9.398z"/>
	<path fill="#F3D563" d="M112.821,21.112c-0.053-0.68,0.862-1.726,1.465-2.51c0.604-0.784,3.578-3.685,5.229-4.654
		c1.649-0.969,5.094-2.772,5.646-2.981c0.555-0.209,2.98-1.124,3.739-1.412c0.759-0.288,2.065-1.517,2.642-1.726
		c0.574-0.209,1.045-0.209,1.28,0s0.327,0.564,0.263,0.968c-0.063,0.404,0,1.072-0.232,1.464c-0.234,0.392-4.688,2.621-5.104,2.882
		c-0.41,0.261-2.764,1.657-4.381,2.858c-1.615,1.201-3.055,2.317-4.299,3.463s-2.757,2.817-3.007,3.007
		c-0.251,0.189-0.522,0.732-1.071,0.811c-0.55,0.078-0.838-0.369-1.203-0.642S112.874,21.792,112.821,21.112z"/>
	<path fill="#DFB40A" d="M155.667,9.539c0.315-0.095,4.474,2.488,5.268,3.102c0.795,0.613,3.086,2.342,3.684,2.841
		c0.596,0.499,2.529,2.035,3.223,2.702c0.688,0.667,2.73,2.482,3.033,2.928c0.299,0.446,2.385,3.036,2.604,3.625
		c0.221,0.591,0.236,1.547-0.416,0.914c-0.654-0.633-1.299-1.343-2.438-2.36c-1.145-1.018-5.056-4.711-5.967-5.316
		c-0.91-0.605-2.674-1.705-3.759-2.493c-1.084-0.789-2.002-1.392-2.674-1.943c-0.675-0.551-1.42-1.055-2.052-1.683
		C155.543,11.229,155.351,9.633,155.667,9.539z"/>
	<path fill="#DFB40A" d="M113.168,21.287c0.254-0.685,1.308-1.255,2.229-2.022c0.924-0.768,2.721-1.854,4.045-2.789
		c1.326-0.935,2.121-1.57,3.066-2.162c0.945-0.591,2.531-1.565,3.349-2.092c0.813-0.526,2.728-1.678,3.349-2.161
		c0.623-0.483,2.625-2.373,3.146-2.387c0.521-0.015,0.665,0.156,0.75,0.901c0.086,0.745-0.006,1.323-0.411,1.838
		c-0.403,0.515-2.409,1.454-3.349,1.949c-0.938,0.495-2.807,1.422-3.678,2.077c-0.873,0.655-2.187,1.446-3.362,2.385
		c-1.183,0.939-2.774,2.056-3.419,2.719c-0.643,0.664-2.586,2.805-2.993,3.097c-0.41,0.292-0.456,0.563-0.897,0.642
		c-0.445,0.078-0.863-0.369-1.203-0.642C113.447,22.367,112.917,21.972,113.168,21.287z"/>
	<path fill="#F3D563" d="M145.138,42.161c0.758,0.34,2.483-0.078,2.614-1.177s-0.575-1.358-1.49-1.567s-1.961,0.186-2.248,1.045
		C143.726,41.325,144.379,41.821,145.138,42.161z"/>
	<g>
		<path fill="#FFFFFF" d="M145.773,41.776c-0.235,0-0.371-0.045-0.431-0.07c-1.059-0.475-0.93-0.856-0.854-1.086
			c0.176-0.522,0.77-0.758,1.28-0.758c0.13,0,0.258,0.014,0.382,0.042c0.982,0.226,1.18,0.405,1.105,1.021
			C147.196,41.434,146.441,41.776,145.773,41.776C145.774,41.776,145.774,41.776,145.773,41.776z"/>
	</g>
	<path fill="#F3D563" d="M136.771,40.043c-0.131-0.916,1.046-1.465,1.726-1.412c0.68,0.052,1.312,0.269,1.465,1.141
		c0.156,0.872-0.681,1.656-1.596,1.63C137.452,41.375,136.902,40.958,136.771,40.043z"/>
	<g>
		<path fill="#FFFFFF" d="M138.379,40.902c-0.699-0.021-1.021-0.289-1.113-0.93c-0.014-0.091-0.014-0.231,0.136-0.403
			c0.239-0.275,0.697-0.441,1.002-0.441c0.802,0.061,0.991,0.313,1.065,0.731c0.053,0.295-0.098,0.526-0.19,0.64
			c-0.209,0.25-0.542,0.404-0.868,0.404L138.379,40.902z"/>
	</g>
	<path fill="#231815" d="M154.917,23.832c0.42-0.889,1.203-1.074,2.092-1.19c0.894-0.117,2.724,0.877,3.089,1.19
		c0.362,0.314,1.256,0.785,1.465,1.726s-0.209,2.824-1.412,3.033s-2.458,0-3.294-0.418c-0.837-0.419-1.732-1.843-1.938-2.521
		C154.717,24.975,154.917,23.832,154.917,23.832z"/>
	<path fill="#231815" d="M124.43,26.028c-0.454-1.15,0.521-2.51,1.464-3.033c0.94-0.522,3.556-0.418,3.976,0
		c0.418,0.418,0.521,1.046,0,2.092c-0.521,1.046-1.849,2.092-3.033,2.301C125.65,27.597,124.883,27.178,124.43,26.028z"/>
</g>
</svg>
