<?xml version="1.0" encoding="utf-8"?>
<!-- Generator: Adobe Illustrator 16.0.0, SVG Export Plug-In . SVG Version: 6.00 Build 0)  -->
<!DOCTYPE svg PUBLIC "-//W3C//DTD SVG 1.1//EN" "http://www.w3.org/Graphics/SVG/1.1/DTD/svg11.dtd">
<svg version="1.1" id="图层_1" xmlns="http://www.w3.org/2000/svg" xmlns:xlink="http://www.w3.org/1999/xlink" x="0px" y="0px"
	 width="189px" height="72px" viewBox="0 0 189 72" enable-background="new 0 0 189 72" xml:space="preserve">
<g id="图层_2">
	<rect y="0.207" fill="#C7171E" width="189.67" height="72.255"/>
</g>
<g>
	<g transform="rotate(45 84.094 114.25)">
		<path fill="#FFFFFF" d="M74.544,27.84c-0.001,1.45,0.368,2.737,1.103,3.806l-2.571,2.579c-0.272,0.294-0.073,0.497,0.216,0.787
			l2.018,2.012c0.277,0.293,0.466,0.476,0.75,0.186l2.788-2.787c0.626,0.23,2.129,0.629,4.402,0.298l1.744-1.316
			c0.131-0.099,0.358-0.247,0.509-0.328l1.569-0.859l-1.255,1.269c-0.12,0.123-0.326,0.301-0.456,0.401l-1.501,1.132l2.557,7
			c0.084,0.233,0.344,0.355,0.578,0.27c0.06-0.021,0.113-0.055,0.162-0.101l6.005-5.712c0.07-0.066,0.116-0.153,0.133-0.251
			l1.347-7.525c1.638-1.416,3.298-3.065,4.933-4.897c9.409-10.567,10.812-18.827,10.812-22.808
			c-0.001-1.311-0.159-2.034-0.166-2.065c-0.041-0.179-0.184-0.317-0.365-0.347c-0.466-0.079-11.623-1.8-26.139,12.707
			c-0.017,0.019-1.906,1.964-3.933,4.69l-7.455,2.072c-0.087,0.026-0.166,0.077-0.226,0.148l-5.302,6.369
			c-0.161,0.194-0.134,0.481,0.059,0.639c0.048,0.039,0.102,0.069,0.16,0.086l7.126,2.072l1.199-1.38
			c0.106-0.124,0.294-0.308,0.423-0.42l1.338-1.148l-0.949,1.487c-0.107,0.166-0.227,0.326-0.356,0.481L74.544,27.84z
			 M90.275,12.399c2.357-2.357,5.713-2.82,7.499-1.034c1.786,1.786,1.325,5.142-1.033,7.501c-2.357,2.357-5.711,2.817-7.499,1.033
			C87.456,18.113,87.919,14.755,90.275,12.399z"/>
		<g>
			
				<linearGradient id="SVGID_1_" gradientUnits="userSpaceOnUse" x1="-281.3001" y1="234.615" x2="-280.1984" y2="233.5171" gradientTransform="matrix(10.7077 0 0 10.708 3105.5693 -2492.969)">
				<stop  offset="0" style="stop-color:#000000"/>
				<stop  offset="1" style="stop-color:#FFFFFF"/>
			</linearGradient>
			<path opacity="0.1" fill="url(#SVGID_1_)" enable-background="new    " d="M93.494,11.088c3.333-0.001,6.035,2.046,6.035,4.571
				c0.001,2.528-2.702,4.573-6.033,4.573c-3.335-0.001-6.036-2.047-6.036-4.572C87.46,13.135,90.163,11.088,93.494,11.088z"/>
		</g>
		<path fill="#FFFFFF" d="M73.319,39.054L20.147,92.149c-0.319,0.319-0.836,0.318-1.157-0.001l-0.572-0.572
			c-0.32-0.318-0.319-0.834-0.001-1.154l0,0l53.169-53.098c0.319-0.319,0.836-0.318,1.156,0l0.576,0.575
			c0.32,0.32,0.32,0.836,0.001,1.153C73.319,39.054,73.319,39.054,73.319,39.054 M72.554,45.815L19.381,98.911
			c-0.319,0.319-0.836,0.319-1.156,0l-0.575-0.575c-0.319-0.319-0.318-0.835,0-1.153l0,0l53.17-53.096
			c0.32-0.32,0.835-0.32,1.157-0.001l0.575,0.575c0.319,0.319,0.318,0.833,0.001,1.154l0,0 M12.79,93.206
			c-0.32,0.317-0.836,0.318-1.156,0l-0.578-0.575c-0.319-0.319-0.318-0.835,0.001-1.154l0,0l53.17-53.098
			c0.32-0.318,0.837-0.318,1.157,0l0.576,0.576c0.32,0.32,0.319,0.836,0,1.155l0,0L12.789,93.207L12.79,93.206z"/>
	</g>
	<g transform="translate(0 -26)">
		<g>
			<path id="d_1_" fill="#FFFFFF" d="M13.766,51.064c0.295-0.042,0.421,0,0.716,0c1.433,0,2.15,0.421,3.372,2.655
				c1.686,3.288,2.698,5.184,3.751,6.533c1.138,1.433,2.149,1.812,3.709,1.812c1.686,0,3.203-0.168,3.498-0.421l0.042-0.21
				c-1.138-1.307-2.276-2.908-4.299-6.365c-1.391-2.36-2.655-4.51-3.751-5.479c1.476-0.759,5.016-2.613,5.016-6.702
				c0-5.353-3.457-7.713-10.327-7.713c-1.939,0-6.069,0.463-7.123,0.716c0.084,1.18,0.084,2.192,0.084,4.257v14.12
				c0,3.541-0.042,6.027-0.126,7.713c0.885,0,3.288-0.042,4.468-0.169c0.674-0.084,0.969-0.252,0.969-1.096V51.064z M13.766,38.63
				c0.548-0.126,1.18-0.126,1.77-0.126c2.656,0,4.763,1.475,4.763,4.847c0,2.655-1.686,3.92-2.529,4.257
				c-0.632,0.295-2.95,0.337-4.004,0.211V38.63z M39.855,42.676c-5.69,0-9.82,4.173-9.82,9.947c0,5.985,4.004,9.61,9.441,9.61
				c5.9,0,9.778-4.088,9.778-10.032c0-5.479-3.499-9.525-9.357-9.525H39.855z M39.477,46.048c3.245,0,4.299,3.541,4.299,6.575
				c0,3.667-1.264,6.238-3.877,6.238c-2.403,0-4.384-2.234-4.384-6.786c0-3.414,1.391-6.027,3.92-6.027H39.477z M68.348,57.513
				c-1.054,0.421-2.74,0.759-4.594,0.759c-2.866,0-5.943-1.686-5.943-6.07c0-3.583,2.234-5.732,5.227-5.732
				c1.096,0,2.402,0.295,3.203,0.59c1.686,0.295,2.402-1.307,2.445-2.739c-0.506-0.548-2.571-1.644-5.774-1.644
				c-5.901,0-10.453,4.173-10.453,10.242s4.173,9.315,9.736,9.315c1.897,0,3.667-0.379,4.847-1.138
				c0.801-0.716,1.391-2.234,1.433-3.456L68.348,57.513z M77.368,36.017c0-2.571-0.169-2.782-0.801-2.782
				c-0.927,0-3.667,0.253-4.637,0.632c0.084,0.885,0.169,2.149,0.169,4.636v15.764c0,3.499-0.042,5.985-0.126,7.713
				c2.191,0.042,2.992-0.042,4.046-0.169c1.054-0.084,1.349-0.252,1.349-1.096v-8.219c1.56,2.782,4.172,5.901,5.69,7.84
				c1.012,1.349,1.728,1.728,3.119,1.728c1.307,0,2.993-0.252,3.751-0.59l0.084-0.168c-2.234-2.571-5.985-7.587-7.292-9.736
				c1.981-2.192,3.92-4.341,5.817-6.66c0.927-1.096,0.758-1.644-0.253-1.896c-1.054-0.253-2.276-0.379-3.161-0.337
				c-1.012,1.349-5.859,7.376-7.755,9.399V36.017z M106.662,57.218c-0.674,0.337-2.824,1.054-4.932,1.054
				c-2.822,0-5.436-1.433-5.689-4.89c2.234,0.084,6.701,0.042,7.756-0.21c1.729-0.421,3.455-1.096,3.583-1.728
				c0.085-0.295,0.126-0.801,0.126-1.391c-0.041-3.456-2.15-7.376-7.588-7.376c-5.731,0-9.063,4.931-9.063,9.989
				c0,6.238,3.414,9.568,9.611,9.568c1.433,0,3.244-0.464,3.877-0.717c0.886-0.379,2.404-2.191,2.404-4.13L106.662,57.218z
				 M99.539,45.837c2.066,0,3.033,1.644,2.992,3.625c0,0.505-0.254,0.885-0.549,0.885c-1.014,0.084-4.215,0.126-5.858,0
				c0.126-3.035,1.813-4.51,3.371-4.51H99.539z M122.805,57.723c-0.505,0.295-1.686,0.759-2.949,0.759
				c-1.433,0-2.572-0.759-2.78-2.782c-0.128-1.728-0.213-5.69-0.044-9.062c1.688,0,3.119-0.084,4.047-0.168
				c0.844-0.084,1.813-0.295,2.319-3.288h-6.237c0-1.18,0.084-2.655,0.254-3.92c-1.563,0.084-2.531,0.716-3.246,1.307
				c-0.718,0.548-4.171,3.667-4.805,4.805c0,0.505,0.76,1.264,2.404,1.264v9.863c0,2.993,1.392,5.732,5.732,5.732
				c1.896,0,3.666-0.422,4.678-1.307c0.801-0.717,0.97-2.065,0.801-3.119L122.805,57.723L122.805,57.723z"/>
		</g>
	</g>
</g>
</svg>
