<?xml version="1.0" encoding="utf-8"?>
<!-- Generator: Adobe Illustrator 16.0.0, SVG Export Plug-In . SVG Version: 6.00 Build 0)  -->
<!DOCTYPE svg PUBLIC "-//W3C//DTD SVG 1.1//EN" "http://www.w3.org/Graphics/SVG/1.1/DTD/svg11.dtd">
<svg version="1.1" id="图层_1" xmlns="http://www.w3.org/2000/svg" xmlns:xlink="http://www.w3.org/1999/xlink" x="0px" y="0px"
	 width="188.333px" height="71.333px" viewBox="0 0 188.333 71.333" enable-background="new 0 0 188.333 71.333"
	 xml:space="preserve">
<filter  id="c" x="-50%" height="200%" y="-50%" width="200%" filterUnits="objectBoundingBox">
	<feOffset  result="shadowOffsetOuter1" in="SourceAlpha" dy="1"></feOffset>
	<feColorMatrix  values="0 0 0 0 0 0 0 0 0 0 0 0 0 0 0 0 0 0 0.15 0" in="shadowOffsetOuter1"></feColorMatrix>
</filter>
<filter  id="a" x="-50%" height="200%" y="-50%" width="200%" filterUnits="objectBoundingBox">
	<feOffset  dx="-2" result="shadowOffsetOuter1" in="SourceAlpha"></feOffset>
	<feColorMatrix  values="0 0 0 0 0 0 0 0 0 0 0 0 0 0 0 0 0 0 0.15 0" result="shadowMatrixOuter1" in="shadowOffsetOuter1">
		</feColorMatrix>
	<feMerge>
		<feMergeNode  in="shadowMatrixOuter1"></feMergeNode>
		<feMergeNode  in="SourceGraphic"></feMergeNode>
	</feMerge>
</filter>
<g id="图层_2">
	<rect x="0" y="-0.001" fill="#C7171E" width="188.333" height="71.333"/>
</g>
<g>
	<g transform="rotate(45 84.094 114.25)" filter="url(#a)">
		<path fill="#FFFFFF" d="M73.937,27.924c-0.001,1.445,0.367,2.726,1.099,3.792l-2.562,2.57c-0.271,0.293-0.073,0.496,0.215,0.784
			l2.012,2.004c0.276,0.293,0.465,0.474,0.747,0.186l2.779-2.777c0.624,0.229,2.121,0.627,4.386,0.296l1.739-1.311
			c0.13-0.099,0.356-0.246,0.507-0.327l1.563-0.856l-1.251,1.265c-0.119,0.122-0.325,0.3-0.454,0.399l-1.496,1.128l2.549,6.975
			c0.084,0.233,0.343,0.354,0.576,0.269c0.06-0.021,0.113-0.055,0.161-0.1l5.983-5.693c0.07-0.065,0.116-0.152,0.133-0.249
			l1.342-7.499c1.632-1.411,3.286-3.054,4.916-4.88c9.375-10.53,10.773-18.761,10.774-22.728c-0.001-1.306-0.158-2.027-0.166-2.058
			c-0.04-0.178-0.184-0.316-0.364-0.346c-0.465-0.079-11.582-1.793-26.047,12.662c-0.017,0.02-1.899,1.957-3.92,4.674l-7.428,2.064
			c-0.087,0.026-0.166,0.077-0.225,0.148l-5.284,6.347c-0.16,0.193-0.133,0.479,0.059,0.637c0.048,0.04,0.102,0.069,0.16,0.086
			l7.101,2.064l1.196-1.376c0.105-0.122,0.293-0.307,0.421-0.418l1.333-1.143l-0.945,1.481c-0.108,0.166-0.226,0.325-0.356,0.478
			L73.937,27.924z M89.613,12.537c2.348-2.348,5.693-2.81,7.472-1.03c1.78,1.78,1.32,5.124-1.03,7.474
			c-2.348,2.348-5.691,2.808-7.472,1.03C86.803,18.231,87.265,14.886,89.613,12.537z"/>
		<g>
			
				<linearGradient id="SVGID_1_" gradientUnits="userSpaceOnUse" x1="-67.5491" y1="527.6558" x2="-66.4474" y2="528.7538" gradientTransform="matrix(7.5448 -7.545 -7.5448 -7.545 4579.9038 3490.9043)">
				<stop  offset="0" style="stop-color:#000000"/>
				<stop  offset="1" style="stop-color:#FFFFFF"/>
			</linearGradient>
			<path opacity="0.1" fill="url(#SVGID_1_)" enable-background="new    " d="M92.82,11.231c3.321-0.001,6.013,2.038,6.013,4.555
				c0.001,2.518-2.692,4.556-6.012,4.557c-3.322-0.001-6.014-2.041-6.014-4.557S89.5,11.231,92.82,11.231z"/>
		</g>
		<path fill="#FFFFFF" d="M72.716,39.099L19.732,92.006c-0.318,0.318-0.833,0.317-1.153-0.001l-0.57-0.57
			c-0.319-0.317-0.318-0.831-0.001-1.15l0,0l52.982-52.91c0.318-0.318,0.833-0.317,1.152,0l0.574,0.572
			c0.319,0.319,0.319,0.833,0.001,1.15c-0.001,0.001-0.001,0.001-0.001,0.001 M71.954,45.836L18.968,98.744
			c-0.318,0.318-0.832,0.318-1.152,0l-0.573-0.573c-0.318-0.318-0.317-0.832,0-1.149l0,0l52.983-52.909
			c0.318-0.318,0.832-0.318,1.152,0l0.572,0.572c0.318,0.318,0.318,0.831,0.001,1.15l0,0 M12.401,93.059
			c-0.319,0.316-0.833,0.316-1.152,0l-0.576-0.573c-0.318-0.318-0.317-0.832,0.001-1.15l0,0l52.983-52.911
			c0.319-0.316,0.833-0.317,1.152,0l0.575,0.574c0.319,0.319,0.317,0.832-0.001,1.15l0,0L12.4,93.06L12.401,93.059z"/>
	</g>
	<g transform="translate(0 -26)">
		<g filter="url(#c)">
			<path id="d_2_" d="M13.717,50.769c0.294-0.042,0.42,0,0.714,0c1.428,0,2.142,0.42,3.36,2.646c1.68,3.276,2.688,5.166,3.738,6.51
				c1.134,1.428,2.142,1.806,3.696,1.806c1.68,0,3.192-0.168,3.486-0.42l0.042-0.21c-1.134-1.302-2.268-2.898-4.284-6.342
				c-1.386-2.352-2.646-4.494-3.738-5.46c1.47-0.756,4.998-2.604,4.998-6.678c0-5.334-3.444-7.686-10.29-7.686
				c-1.932,0-6.048,0.462-7.098,0.714c0.084,1.176,0.084,2.184,0.084,4.242v14.07c0,3.528-0.042,6.006-0.126,7.686
				c0.882,0,3.276-0.042,4.452-0.168c0.672-0.084,0.966-0.252,0.966-1.092V50.769z M13.717,38.379
				c0.546-0.126,1.176-0.126,1.764-0.126c2.646,0,4.746,1.47,4.746,4.83c0,2.646-1.68,3.906-2.52,4.242
				c-0.63,0.294-2.94,0.336-3.99,0.21V38.379z M39.715,42.411c-5.67,0-9.786,4.158-9.786,9.912c0,5.964,3.99,9.576,9.408,9.576
				c5.88,0,9.744-4.074,9.744-9.996c0-5.46-3.486-9.492-9.324-9.492H39.715z M39.337,45.771c3.234,0,4.284,3.528,4.284,6.552
				c0,3.654-1.26,6.216-3.864,6.216c-2.394,0-4.368-2.226-4.368-6.762c0-3.402,1.386-6.006,3.906-6.006H39.337z M68.107,57.195
				c-1.05,0.42-2.73,0.756-4.578,0.756c-2.856,0-5.922-1.68-5.922-6.048c0-3.57,2.226-5.712,5.208-5.712
				c1.092,0,2.394,0.294,3.192,0.588c1.68,0.294,2.394-1.302,2.436-2.73c-0.504-0.546-2.562-1.638-5.754-1.638
				c-5.88,0-10.416,4.158-10.416,10.206c0,6.048,4.158,9.282,9.702,9.282c1.89,0,3.654-0.378,4.83-1.134
				c0.798-0.714,1.386-2.226,1.428-3.444L68.107,57.195z M77.095,35.775c0-2.562-0.168-2.772-0.798-2.772
				c-0.924,0-3.654,0.252-4.62,0.63c0.084,0.882,0.168,2.142,0.168,4.62v15.708c0,3.486-0.042,5.964-0.126,7.686
				c2.184,0.042,2.982-0.042,4.032-0.168c1.05-0.084,1.344-0.252,1.344-1.092v-8.19c1.554,2.772,4.158,5.88,5.67,7.813
				c1.008,1.344,1.722,1.722,3.108,1.722c1.302,0,2.982-0.252,3.738-0.588l0.084-0.168c-2.226-2.562-5.964-7.56-7.266-9.702
				c1.974-2.184,3.906-4.326,5.796-6.636c0.924-1.092,0.756-1.638-0.252-1.89c-1.05-0.252-2.268-0.378-3.15-0.336
				c-1.008,1.344-5.838,7.35-7.728,9.366V35.775z M106.286,56.901c-0.672,0.336-2.814,1.05-4.914,1.05
				c-2.813,0-5.417-1.428-5.67-4.872c2.227,0.084,6.678,0.042,7.729-0.21c1.723-0.42,3.443-1.092,3.57-1.722
				c0.084-0.294,0.125-0.798,0.125-1.386c-0.041-3.444-2.143-7.35-7.561-7.35c-5.711,0-9.03,4.914-9.03,9.954
				c0,6.216,3.402,9.534,9.577,9.534c1.428,0,3.233-0.462,3.863-0.714c0.883-0.378,2.396-2.184,2.396-4.116L106.286,56.901z
				 M99.188,45.561c2.059,0,3.022,1.638,2.981,3.612c0,0.504-0.252,0.882-0.547,0.882c-1.009,0.084-4.199,0.126-5.837,0
				c0.126-3.024,1.806-4.494,3.359-4.494H99.188z M122.372,57.405c-0.504,0.294-1.68,0.756-2.939,0.756
				c-1.428,0-2.563-0.756-2.771-2.772c-0.128-1.722-0.212-5.67-0.044-9.03c1.682,0,3.109-0.084,4.033-0.168
				c0.84-0.084,1.807-0.294,2.311-3.276h-6.216c0-1.176,0.084-2.646,0.253-3.906c-1.557,0.084-2.521,0.714-3.234,1.302
				c-0.715,0.546-4.156,3.654-4.787,4.788c0,0.504,0.756,1.26,2.395,1.26v9.828c0,2.982,1.387,5.712,5.713,5.712
				c1.889,0,3.652-0.42,4.66-1.302c0.799-0.714,0.967-2.058,0.799-3.108L122.372,57.405L122.372,57.405z"/>
		</g>
		<g>
			<path id="d_1_" fill="#FFFFFF" d="M13.717,50.769c0.294-0.042,0.42,0,0.714,0c1.428,0,2.142,0.42,3.36,2.646
				c1.68,3.276,2.688,5.166,3.738,6.51c1.134,1.428,2.142,1.806,3.696,1.806c1.68,0,3.192-0.168,3.486-0.42l0.042-0.21
				c-1.134-1.302-2.268-2.898-4.284-6.342c-1.386-2.352-2.646-4.494-3.738-5.46c1.47-0.756,4.998-2.604,4.998-6.678
				c0-5.334-3.444-7.686-10.29-7.686c-1.932,0-6.048,0.462-7.098,0.714c0.084,1.176,0.084,2.184,0.084,4.242v14.07
				c0,3.528-0.042,6.006-0.126,7.686c0.882,0,3.276-0.042,4.452-0.168c0.672-0.084,0.966-0.252,0.966-1.092V50.769z M13.717,38.379
				c0.546-0.126,1.176-0.126,1.764-0.126c2.646,0,4.746,1.47,4.746,4.83c0,2.646-1.68,3.906-2.52,4.242
				c-0.63,0.294-2.94,0.336-3.99,0.21V38.379z M39.715,42.411c-5.67,0-9.786,4.158-9.786,9.912c0,5.964,3.99,9.576,9.408,9.576
				c5.88,0,9.744-4.074,9.744-9.996c0-5.46-3.486-9.492-9.324-9.492H39.715z M39.337,45.771c3.234,0,4.284,3.528,4.284,6.552
				c0,3.654-1.26,6.216-3.864,6.216c-2.394,0-4.368-2.226-4.368-6.762c0-3.402,1.386-6.006,3.906-6.006H39.337z M68.107,57.195
				c-1.05,0.42-2.73,0.756-4.578,0.756c-2.856,0-5.922-1.68-5.922-6.048c0-3.57,2.226-5.712,5.208-5.712
				c1.092,0,2.394,0.294,3.192,0.588c1.68,0.294,2.394-1.302,2.436-2.73c-0.504-0.546-2.562-1.638-5.754-1.638
				c-5.88,0-10.416,4.158-10.416,10.206c0,6.048,4.158,9.282,9.702,9.282c1.89,0,3.654-0.378,4.83-1.134
				c0.798-0.714,1.386-2.226,1.428-3.444L68.107,57.195z M77.095,35.775c0-2.562-0.168-2.772-0.798-2.772
				c-0.924,0-3.654,0.252-4.62,0.63c0.084,0.882,0.168,2.142,0.168,4.62v15.708c0,3.486-0.042,5.964-0.126,7.686
				c2.184,0.042,2.982-0.042,4.032-0.168c1.05-0.084,1.344-0.252,1.344-1.092v-8.19c1.554,2.772,4.158,5.88,5.67,7.813
				c1.008,1.344,1.722,1.722,3.108,1.722c1.302,0,2.982-0.252,3.738-0.588l0.084-0.168c-2.226-2.562-5.964-7.56-7.266-9.702
				c1.974-2.184,3.906-4.326,5.796-6.636c0.924-1.092,0.756-1.638-0.252-1.89c-1.05-0.252-2.268-0.378-3.15-0.336
				c-1.008,1.344-5.838,7.35-7.728,9.366V35.775z M106.286,56.901c-0.672,0.336-2.814,1.05-4.914,1.05
				c-2.813,0-5.417-1.428-5.67-4.872c2.227,0.084,6.678,0.042,7.729-0.21c1.723-0.42,3.443-1.092,3.57-1.722
				c0.084-0.294,0.125-0.798,0.125-1.386c-0.041-3.444-2.143-7.35-7.561-7.35c-5.711,0-9.03,4.914-9.03,9.954
				c0,6.216,3.402,9.534,9.577,9.534c1.428,0,3.233-0.462,3.863-0.714c0.883-0.378,2.396-2.184,2.396-4.116L106.286,56.901z
				 M99.188,45.561c2.059,0,3.022,1.638,2.981,3.612c0,0.504-0.252,0.882-0.547,0.882c-1.009,0.084-4.199,0.126-5.837,0
				c0.126-3.024,1.806-4.494,3.359-4.494H99.188z M122.372,57.405c-0.504,0.294-1.68,0.756-2.939,0.756
				c-1.428,0-2.563-0.756-2.771-2.772c-0.128-1.722-0.212-5.67-0.044-9.03c1.682,0,3.109-0.084,4.033-0.168
				c0.84-0.084,1.807-0.294,2.311-3.276h-6.216c0-1.176,0.084-2.646,0.253-3.906c-1.557,0.084-2.521,0.714-3.234,1.302
				c-0.715,0.546-4.156,3.654-4.787,4.788c0,0.504,0.756,1.26,2.395,1.26v9.828c0,2.982,1.387,5.712,5.713,5.712
				c1.889,0,3.652-0.42,4.66-1.302c0.799-0.714,0.967-2.058,0.799-3.108L122.372,57.405L122.372,57.405z"/>
		</g>
	</g>
</g>
</svg>
